<?xml version="1.0" encoding="UTF-8"?>
<svg xmlns="http://www.w3.org/2000/svg" viewBox="0 0 1747 1999">
  <g id="Layer-2">
    <path d="m669.67,1683.93c-7.14-4.41-16.09-1.85-20.65,4.88-4.28,6.32-8.76,12.49-13.48,18.49-.28.36-2.24,2.77-2.32,2.89-1.06,1.28-2.13,2.56-3.21,3.83-2.55,2.99-5.16,5.93-7.82,8.83-10.3,11.2-21.36,21.68-33.03,31.43-5.65,4.72-11.44,9.27-17.36,13.66-.85.63-1.7,1.25-2.55,1.87,0,0-.48.34-.85.62-.5.36-1.51,1.07-1.67,1.18-.65.45-1.3.91-1.95,1.36-3.25,2.26-6.54,4.46-9.86,6.62-12.87,8.37-26.2,16.03-39.87,23.02-13.7,6.99-27.73,13.31-42.03,18.98-.95.38-1.9.74-2.85,1.12,24.37-25.53,45.82-53.88,63.57-84.28,18.05-30.9,32.4-64.12,42.22-98.53,2.22-7.79-2.11-16.33-9.96-18.73-7.66-2.34-16.5,2.14-18.73,9.96-4.18,14.65-9.15,29.06-14.95,43.15-1.38,3.35-2.82,6.67-4.26,9.99-.07.16-.34.76-.49,1.11-.3.66-.61,1.33-.91,1.99-.81,1.75-1.64,3.5-2.47,5.24-3.35,6.96-6.89,13.83-10.61,20.6-7.22,13.12-15.13,25.86-23.68,38.15-4.41,6.35-9,12.59-13.74,18.7-1.19,1.53-2.38,3.05-3.59,4.56-.45.57-.91,1.13-1.36,1.7-.05.06-.08.1-.12.16-.05.06-.1.12-.17.2-2.46,2.99-4.95,5.95-7.49,8.87-18.4,21.24-38.81,40.74-60.84,58.18-26.44,6.58-53.26,11.59-80.22,15.54-40.03,5.86-79.73,9.3-119.94,12.17-8.07.58-15.24,5.66-15.59,14.39-.3,7.39,6.26,16.17,14.39,15.59,44.27-3.16,88.7-6.93,132.64-13.59-3.98,2.05-7.99,4.04-12.03,5.96-7.85,3.73-15.81,7.23-23.88,10.47-1.79.72-3.59,1.43-5.39,2.12-.9.35-1.8.69-2.71,1.03-.24.09-.42.16-.57.22-.06.02-.19.07-.41.15-4.09,1.48-8.19,2.91-12.32,4.27-16.31,5.37-32.95,9.67-49.8,12.94-7.7,1.49-13.45,10.25-11.37,17.91,2.18,8.03,9.66,12.97,17.91,11.37,63.15-12.25,122.38-39.38,174.37-77,2.7-1.95,5.36-3.94,8.02-5.95,2.68-.7,5.35-1.4,8.02-2.13,63.96-17.47,125.19-45.02,177.5-86.17,28.26-22.23,53.18-48.66,73.36-78.45,4.54-6.71,1.8-16.52-4.88-20.65Z" style="fill: #26ff00; stroke-width: 0px;"/>
  </g>
  <g id="Layer-3">
    <path d="m563.86,1143.38c-2.23-14.75-14.69-30.36-27.05-37.98-12.27-7.57-30.45-11.35-44.61-7.51-15.2,4.12-30.07,12.88-37.98,27.05-1.14,2.52-2.28,5.04-3.42,7.57-10.86.42-21.69.75-32.57,2.37-14.34,2.13-29.03,7.72-41.04,15.92-7.96,5.43-16.17,11-23,17.91-6.76,6.83-12.73,14.59-18.57,22.18-5.98,7.76-11.11,16.13-16.06,24.56-16.23,27.63-29.93,56.33-32.66,88.69-3.07,36.48,12.76,71.09,35.8,98.38,19.34,22.91,46.13,38.8,72.06,53.13,13.62,7.53,29.16,10.97,44.61,7.51,14.54-3.25,30.59-13.81,37.98-27.05,7.43-13.31,11.62-29.46,7.51-44.61-4.11-15.16-12.87-30.15-27.05-37.98-12.93-7.15-25.84-14.37-37.77-23.07-3.53-3.24-6.86-6.67-9.97-10.32-1.04-1.77-2.03-3.58-2.95-5.42-.16-.67-.32-1.33-.46-2,.03-.86.07-1.73.12-2.59,1.13-4.22,2.53-8.35,4.13-12.42,6.73-13.68,14.61-27.22,23.62-39.5,1.71-1.84,3.49-3.63,5.34-5.32.96-.2,1.92-.39,2.88-.56,6.84-.25,13.69-.3,20.51-.84,18.82-1.5,34.69-3.74,51.82-12.73,7.61-4,14.81-9.37,21.32-14.91,6.28-5.35,11.65-12.3,16.16-19.1,2.24-3.38,3.72-7.34,5.37-10.98,1.75-3.88,3.52-7.24,4.56-11.26,3.61-13.88,3.49-25,1.36-39.12Z" style="fill: #0031cc; stroke-width: 0px;"/>
    <path d="m656.5,1361.65c1.91-2.24,3.62-4.68,5.12-7.35,7.57-12.27,11.35-30.45,7.51-44.61-4.12-15.2-12.88-30.07-27.05-37.98-4.66-2.11-9.32-4.21-13.98-6.32-10.1-3.05-20.31-3.45-30.62-1.19-14.63,1.35-31.92,11.49-41.55,22.3-10.08,11.32-14.49,18.44-20,32.56-2.87,7.34-4,15.57-4.9,23.26-2.68,22.97,6.45,43.29,14.8,63.84.75,2.58,1.38,5.19,1.89,7.83-.02,1.85-.09,3.7-.23,5.55-.43,1.58-.91,3.15-1.43,4.7-.8,1.37-1.63,2.71-2.5,4.03-1.35,1.36-2.73,2.67-4.16,3.93-1.23.71-2.49,1.38-3.76,2.02-6.58,1.8-12.46,4.91-17.64,9.35-6.88,4.07-12.33,9.65-16.35,16.76-7.57,12.27-11.35,30.45-7.51,44.61,4.12,15.2,12.88,30.07,27.05,37.98,12.82,7.16,30.08,12.4,44.61,7.51,10.76-3.62,21.92-7.3,31.69-13.25,9.29-5.67,18.45-12.08,26.42-19.54,16.6-15.55,28.05-34.5,36.02-55.62,8.33-22.08,8.85-45.81,5.83-68.89-1.43-10.96-5.11-21.29-9.24-31.48Z" style="fill: #0031cc; stroke-width: 0px;"/>
  </g>
  <g id="Layer-4">
    <path d="m1506.36,1786.91c-5.19-12.1-13.84-21.88-22.14-31.92-9.43-11.41-19-24.84-18.17-40.39.14-2.58-3.86-2.73-4-.16-.72,13.61,5.99,26.1,13.96,36.65,8.04,10.63,17.74,20.09,24.05,31.94,10.31,19.36,11.65,42.89,5.02,63.66-3.72,11.63-9.99,22.41-18.6,31.09-1.81,1.82.93,4.74,2.75,2.91,15.86-16.01,24.14-38.6,23.91-61.01-.12-11.24-2.35-22.43-6.79-32.77Z" style="fill: #ff0; stroke-width: 0px;"/>
    <path d="m1463,1765.13c-3.57-13.16-9.85-25.57-18.57-36.06-1.1-1.32-2.24-2.6-3.41-3.86-1.76-1.88-4.67.86-2.91,2.75,8.9,9.53,15.59,21.07,19.62,33.47,4.06,12.48,5.55,25.73,4.22,38.79-1.3,12.73-5.45,25.05-12.08,35.98-6.47,10.66-15.13,19.94-25.22,27.26-10.07,7.31-21.65,12.6-33.81,15.24-1.54.34-3.1.63-4.66.88-2.55.41-1.66,4.32.87,3.9,12.82-2.08,25.15-7.01,36.01-14.12,10.93-7.16,20.43-16.42,27.75-27.24,7.45-11.02,12.38-23.53,14.47-36.66,2.13-13.39,1.26-27.28-2.29-40.35Z" style="fill: #ff0; stroke-width: 0px;"/>
    <path d="m1535.53,1811.09c-4.31-15.55-11.82-29.64-21.02-42.82-8.86-12.69-18.84-24.54-27.9-37.09-8.75-12.11-16.71-25.15-20.89-39.6-.52-1.81-.99-3.64-1.39-5.48-.56-2.52-4.46-1.64-3.9.87,3.27,14.75,10.39,28.21,18.83,40.62,8.62,12.67,18.48,24.43,27.57,36.76,9.19,12.45,17.49,25.66,22.56,40.37,5.32,15.43,7.52,31.85,6.6,48.14-.92,16.22-4.92,32.34-12.06,46.95-.9,1.84-1.85,3.66-2.85,5.46-1.24,2.24,2.15,4.36,3.4,2.1,8.05-14.56,13.04-30.67,14.9-47.19,1.84-16.39.57-33.19-3.84-49.09Z" style="fill: #ff0; stroke-width: 0px;"/>
  </g>
  <g id="Layer-5">
    <path d="m1418.55,461.05c-9.9-15.86-24.32-27.44-42.13-33.35-19.63-6.51-41.11-5.32-61.11-1.34-20.23,4.02-39.91,10.94-59.28,17.9-20.97,7.53-41.69,15.72-62.24,24.33-78.38,32.87-154.17,70.44-236.02,93.14-80.53,22.33-163.37,32.84-246.73,31.55-83.49-1.3-166-14.24-245.68-39.14-9.76-3.05-19.45-6.28-29.09-9.67-7.39-2.6-15.88,2.36-18.11,9.63-2.37,7.76,2.22,15.5,9.63,18.11,77.13,27.1,158.15,43.25,239.73,48.4,81.27,5.12,163.46-.78,243.15-17.55,39.77-8.37,78.94-19.52,117.15-33.39,39.58-14.36,78.16-31.16,116.66-48.14,37.39-16.49,75.69-33.58,113.52-47.37,18.68-6.81,37.62-13.53,57.01-18.04,17.38-4.04,35.04-6.16,51.4-1.16,4.42,1.35,6.32,2.1,10.07,4.22,1.52.86,3,1.78,4.43,2.77.63.43,1.24.89,1.85,1.34.26.21.58.46.84.7,2.57,2.33,4.9,4.83,7.12,7.5.12.15.51.65.82,1.04.28.4.62.89.72,1.04,1.16,1.84,2.28,3.68,3.28,5.61.81,1.54,1.53,3.12,2.25,4.71.08.18.34.8.54,1.26.17.46.37,1.02.43,1.2,1.13,3.54,2.05,7.13,2.66,10.8.08.5.46,3.84.49,3.63.09,1.45.15,2.9.15,4.35,0,1.74-.06,3.48-.19,5.22-.07.87-.15,1.73-.25,2.6-.06.52-.35,2.21-.36,2.38-.66,3.1-1.51,6.16-2.62,9.13-.24.64-.5,1.28-.76,1.92-.12.27-.25.55-.32.69-1.07,1.96-2.11,3.91-3.33,5.79-.83,1.28-1.73,2.53-2.65,3.75.36-.55-2.07,2.35-2.43,2.72-2.54,2.66-5.32,5.11-8.27,7.32.09-.13-2.69,1.72-3.15,2-1.53.92-3.1,1.78-4.69,2.59-1.6.81-3.22,1.56-4.87,2.26-.54.23-1.09.44-1.63.65-.24.07-1.05.34-1.66.53-3.42,1.07-6.92,1.9-10.46,2.48-.88.15-1.77.27-2.66.39-.18.02-.9.09-1.43.14-.53.02-1.33.07-1.52.07-1.34.05-2.68.06-4.02.04-1.79-.03-3.57-.13-5.35-.3-.89-.08-1.77-.2-2.66-.3-.19-.02-.32-.03-.43-.04-3.71-.72-7.31-1.78-10.85-3.08-7.35-2.72-15.91,2.44-18.11,9.63-2.4,7.86,2.26,15.38,9.63,18.11,32.28,11.93,72.27,1.79,94.74-24.4,22.89-26.67,25.49-66.49,6.83-96.36Z" style="fill: #ff008c; stroke-width: 0px;"/>
  </g>
</svg>